M48
; DRILL file {Flux 9.0.1-9.0.1-0~ubuntu22.04.1} date 2025-05-24T01:52:33+0000
; FORMAT={-:-/ absolute / metric / decimal}
; #@! TF.CreationDate,2025-05-24T01:52:33+00:00
; #@! TF.GenerationSoftware,Kicad,Pcbnew,9.0.1-9.0.1-0~ubuntu22.04.1
; #@! TF.FileFunction,MixedPlating,1,2
FMAT,2
METRIC
; #@! TA.AperFunction,Plated,PTH,ComponentDrill
T1C0.600
; #@! TA.AperFunction,Plated,PTH,ComponentDrill
T2C0.900
; #@! TA.AperFunction,Plated,PTH,ComponentDrill
T3C1.000
; #@! TA.AperFunction,Plated,PTH,ComponentDrill
T4C1.300
; #@! TA.AperFunction,NonPlated,NPTH,ComponentDrill
T5C2.400
; #@! TA.AperFunction,NonPlated,NPTH,ComponentDrill
T6C6.600
%
G90
G05
T1
X-43.282Y10.349
X-43.282Y9.079
X-43.282Y7.809
T2
X-9.451Y20.96
X-9.451Y18.42
X-9.451Y15.88
X-9.451Y13.34
X-9.451Y10.8
X-9.451Y8.26
X-9.451Y5.72
X-9.451Y3.18
X-9.451Y0.64
X-9.451Y-1.9
X-9.451Y-4.44
X-9.451Y-6.98
X-9.451Y-9.52
X-9.451Y-12.06
X-9.451Y-14.6
X-9.451Y-17.14
X-9.451Y-19.68
X-9.451Y-22.22
X-9.451Y-24.76
X13.519Y20.96
X13.519Y18.42
X13.519Y15.88
X13.519Y13.34
X13.519Y10.8
X13.519Y8.26
X13.519Y5.72
X13.519Y3.18
X13.519Y0.64
X13.519Y-1.9
X13.519Y-4.44
X13.519Y-6.98
X13.519Y-9.52
X13.519Y-12.06
X13.519Y-14.6
X13.519Y-17.14
X13.519Y-19.68
X13.519Y-22.22
X13.519Y-24.76
T3
X18.952Y31.62
X18.952Y29.08
X18.952Y20.96
X18.952Y18.42
X19.364Y-17.337
X19.364Y-22.417
X19.364Y-24.957
X21.904Y-17.337
X21.904Y-22.416
X21.904Y-24.956
X37.352Y31.62
X37.352Y29.08
X37.352Y20.96
X37.352Y18.42
T4
X45.605Y23.56
X45.605Y28.56
T5
X20.665Y8.702
T6
X-20.092Y-1.3
M30
